<mxfile host="app.diagrams.net" modified="2022-05-30T10:34:28.253Z" agent="5.0 (Windows NT 10.0; Win64; x64) AppleWebKit/537.36 (KHTML, like Gecko) Chrome/102.0.5005.62 Safari/537.36" version="17.4.6" etag="NgoY_7ihPQoQsyaFSqKm" type="github">
  <diagram id="QK5HZa1A7j3AK8uBIgSm" name="Page-1">
    <mxGraphModel dx="1053" dy="588" grid="1" gridSize="10" guides="1" tooltips="1" connect="1" arrows="1" fold="1" page="1" pageScale="1" pageWidth="827" pageHeight="1169" math="0" shadow="0">
      <root>
        <mxCell id="0" />
        <mxCell id="1" parent="0" />
        <mxCell id="2" value="User" style="shape=umlActor;verticalLabelPosition=bottom;verticalAlign=top;html=1;" parent="1" vertex="1">
          <mxGeometry x="50" y="130" width="50" height="80" as="geometry" />
        </mxCell>
        <mxCell id="5" value="LeaderBoard" style="ellipse;whiteSpace=wrap;html=1;" parent="1" vertex="1">
          <mxGeometry x="210" y="59" width="140" height="70" as="geometry" />
        </mxCell>
        <mxCell id="6" value="LogIn" style="ellipse;whiteSpace=wrap;html=1;" parent="1" vertex="1">
          <mxGeometry x="210" y="150" width="140" height="70" as="geometry" />
        </mxCell>
        <mxCell id="7" value="ForumChat" style="ellipse;whiteSpace=wrap;html=1;" parent="1" vertex="1">
          <mxGeometry x="220" y="240" width="140" height="70" as="geometry" />
        </mxCell>
        <mxCell id="8" value="Parser&lt;br&gt;" style="ellipse;whiteSpace=wrap;html=1;" parent="1" vertex="1">
          <mxGeometry x="610" y="210" width="140" height="70" as="geometry" />
        </mxCell>
        <mxCell id="10" value="Buy digital perks" style="ellipse;whiteSpace=wrap;html=1;" parent="1" vertex="1">
          <mxGeometry x="220" y="330" width="140" height="70" as="geometry" />
        </mxCell>
        <mxCell id="EZ6X3SSUhc_Sis5DaN3a-10" value="Check XP/Points" style="ellipse;whiteSpace=wrap;html=1;" vertex="1" parent="1">
          <mxGeometry x="460" y="60" width="140" height="70" as="geometry" />
        </mxCell>
        <mxCell id="UgUoHDpiH-eurTipeE9X-10" value="Stakeholder&lt;br&gt;" style="shape=umlActor;verticalLabelPosition=bottom;verticalAlign=top;html=1;" vertex="1" parent="1">
          <mxGeometry x="510" y="210" width="30" height="60" as="geometry" />
        </mxCell>
        <mxCell id="-emRGyPx6kJDvxxfUff1-10" value="&amp;lt;&amp;lt;include&amp;gt;&amp;gt;" style="html=1;verticalAlign=bottom;labelBackgroundColor=none;endArrow=open;endFill=0;dashed=1;rounded=0;exitX=0.5;exitY=1;exitDx=0;exitDy=0;" edge="1" parent="1" source="10">
          <mxGeometry width="160" relative="1" as="geometry">
            <mxPoint x="270" y="450" as="sourcePoint" />
            <mxPoint x="290" y="450" as="targetPoint" />
          </mxGeometry>
        </mxCell>
        <mxCell id="EZ6X3SSUhc_Sis5DaN3a-11" value="" style="endArrow=classic;html=1;rounded=0;exitX=1;exitY=0.5;exitDx=0;exitDy=0;entryX=0;entryY=0.5;entryDx=0;entryDy=0;strokeColor=default;dashed=1;" edge="1" parent="1" source="5" target="EZ6X3SSUhc_Sis5DaN3a-10">
          <mxGeometry width="50" height="50" relative="1" as="geometry">
            <mxPoint x="420" y="230" as="sourcePoint" />
            <mxPoint x="470" y="180" as="targetPoint" />
          </mxGeometry>
        </mxCell>
        <mxCell id="EZ6X3SSUhc_Sis5DaN3a-12" value="&amp;lt;&amp;lt;include&amp;gt;&amp;gt;" style="text;html=1;align=center;verticalAlign=middle;resizable=0;points=[];autosize=1;strokeColor=none;fillColor=none;" vertex="1" parent="1">
          <mxGeometry x="360" y="70" width="80" height="20" as="geometry" />
        </mxCell>
        <mxCell id="EZ6X3SSUhc_Sis5DaN3a-14" value="" style="endArrow=none;html=1;rounded=0;strokeColor=default;exitX=1;exitY=0.3333333333333333;exitDx=0;exitDy=0;exitPerimeter=0;entryX=0.013;entryY=0.399;entryDx=0;entryDy=0;entryPerimeter=0;" edge="1" parent="1" source="2" target="10">
          <mxGeometry width="50" height="50" relative="1" as="geometry">
            <mxPoint x="360" y="250" as="sourcePoint" />
            <mxPoint x="410" y="200" as="targetPoint" />
          </mxGeometry>
        </mxCell>
        <mxCell id="EZ6X3SSUhc_Sis5DaN3a-15" value="" style="endArrow=none;html=1;rounded=0;strokeColor=default;exitX=1;exitY=0.3333333333333333;exitDx=0;exitDy=0;exitPerimeter=0;entryX=0.013;entryY=0.399;entryDx=0;entryDy=0;entryPerimeter=0;" edge="1" parent="1" source="2">
          <mxGeometry width="50" height="50" relative="1" as="geometry">
            <mxPoint x="98.18" y="69.99666666666663" as="sourcePoint" />
            <mxPoint x="220.00000000000017" y="271.26000000000005" as="targetPoint" />
          </mxGeometry>
        </mxCell>
        <mxCell id="EZ6X3SSUhc_Sis5DaN3a-16" value="" style="endArrow=none;html=1;rounded=0;strokeColor=default;entryX=0;entryY=0.5;entryDx=0;entryDy=0;" edge="1" parent="1" target="5">
          <mxGeometry width="50" height="50" relative="1" as="geometry">
            <mxPoint x="100" y="160" as="sourcePoint" />
            <mxPoint x="241.82000000000016" y="377.93000000000006" as="targetPoint" />
          </mxGeometry>
        </mxCell>
        <mxCell id="EZ6X3SSUhc_Sis5DaN3a-17" value="" style="endArrow=none;html=1;rounded=0;strokeColor=default;" edge="1" parent="1" target="6">
          <mxGeometry width="50" height="50" relative="1" as="geometry">
            <mxPoint x="100" y="160" as="sourcePoint" />
            <mxPoint x="219.99999999999932" y="104" as="targetPoint" />
          </mxGeometry>
        </mxCell>
      </root>
    </mxGraphModel>
  </diagram>
</mxfile>
